# xmcd CD database file
#
# Track frame offsets:
#	150
#	27063
#	49373
#	72649
#	96138
#	120229
#	137856
#	166377
#	197979
#	213643
#	233965
#	258142
#	279050
#	301269
#	318016
#
# Disc length: 4448 seconds
#
# Revision: 0
# Processed by: cddbd v1.5.1PL0 Copyright (c) Steve Scherf et al.
# Submitted via: CDex 1.51
#
DISCID=d1115e0f
DTITLE=Paul Harrison - Live
DYEAR=2003
DGENRE=Jazz
TTITLE0=South Rampart St.
TTITLE1=Girls go crazy
TTITLE2=Fishseller
TTITLE3=Sweet Sue
TTITLE4=I'll fly away
TTITLE5=Creole Jazz
TTITLE6=Sweet Georgia Brown
TTITLE7=Hymn to Freedom
TTITLE8=Bei Mir Bist Du Schön
TTITLE9=Runnin' Wild
TTITLE10=Wolverine Blues
TTITLE11=wonderful World
TTITLE12=That's a plenty
TTITLE13=Dark town Strutters Ball
TTITLE14=Flashback (bonus track)
EXTD=YEAR: 2003
EXTT0=
EXTT1=
EXTT2=
EXTT3=
EXTT4=
EXTT5=
EXTT6=
EXTT7=
EXTT8=
EXTT9=
EXTT10=
EXTT11=
EXTT12=
EXTT13=
EXTT14=
PLAYORDER=
